<svg xmlns="http://www.w3.org/2000/svg" width="100" height="100"><path fill="#fff" d="M0 0h100v100H0z"/><path fill-rule="evenodd" d="M34.48 0v3.448h-3.448v3.448h-3.448v3.448h3.448v6.896h3.448v6.896h3.448v3.448h3.448v3.448h-3.448v3.448H34.48v-3.448h-3.448V20.688h-3.448v6.896H13.792v3.448h3.448v6.896h-3.448v3.448h-3.448V34.48H6.896v-3.448h3.448v-3.448H0v3.448h3.448v17.24H0v3.448h3.448v3.448H0v3.448h3.448v3.448H0v3.448h3.448v3.448H0v3.448h3.448V68.96h3.448v3.448h3.448V68.96H6.896v-3.448h6.896v6.896h13.792V86.2h10.344v3.448H27.584v10.344h3.448v-3.448h3.448v3.448h6.896v-3.448h6.896v3.448h3.448V89.648h-3.448V86.2h-3.448v-3.448h-3.448v-3.448h-3.448v-3.448h3.448V68.96h6.896v6.896h-3.448v3.448h3.448v-3.448h3.448v-3.448h3.448v3.448h3.448v6.896h-3.448v-3.448H51.72v3.448h3.448v10.344h3.448v6.896h3.448v-3.448h3.448v-6.896h6.896v3.448H68.96v6.896h10.344v-3.448h3.448v3.448h6.896v-6.896h3.448v6.896h6.896v-3.448h-3.448v-3.448h3.448V82.752h-3.448V86.2h-3.448v3.448h-3.448V75.856h3.448v3.448h6.896v-6.896H89.648v3.448H86.2V68.96h3.448v-6.896h3.448v6.896h3.448v-3.448h3.448V55.168h-3.448V51.72h3.448V41.376h-3.448v-3.448h3.448v-6.896h-3.448v3.448h-6.896v-3.448h3.448v-3.448h-3.448v3.448H86.2v3.448h-3.448v-3.448h-3.448v-3.448h-6.896v6.896H68.96v3.448h-3.448v3.448h3.448v-3.448h3.448v3.448h3.448V51.72h-3.448v-3.448H68.96v3.448h-3.448v-3.448h-3.448V37.928h-3.448V34.48h6.896v-3.448h-3.448v-3.448h6.896v-3.448h3.448v-3.448H68.96V17.24h3.448v-3.448h-6.896v-3.448h3.448V6.896h3.448V3.448H68.96V0h-6.896v3.448h-3.448v3.448h3.448V17.24h-3.448v-6.896h-3.448V6.896H51.72v3.448h3.448v6.896h-6.896v-6.896h-6.896V6.896h-3.448v3.448h3.448v6.896H34.48v-6.896h-3.448V6.896h3.448V3.448h3.448V0zm13.792 0v3.448h-3.448v3.448h3.448V3.448h3.448V0zm-3.448 17.24v6.896h-3.448v-3.448h-3.448v3.448h3.448v3.448h3.448v3.448h3.448v3.448h-3.448v3.448h3.448V34.48h3.448v-3.448h3.448v-3.448h3.448v-3.448h3.448v-3.448h3.448v3.448h3.448v-3.448h-3.448V17.24h-3.448v3.448h-3.448v3.448h-3.448v-3.448H51.72v3.448h-3.448V17.24zm6.896 6.896v3.448h3.448v-3.448zm-31.032 6.896v3.448h6.896v3.448h-6.896v3.448h10.344v3.448h-3.448v6.896h-6.896v-3.448h3.448v-3.448h-3.448v3.448h-6.896v-3.448h3.448v-3.448h-3.448v3.448H6.896v3.448h3.448v6.896H3.448v3.448h3.448v3.448H3.448v3.448h3.448v-3.448h3.448v-3.448h3.448v6.896h3.448v-3.448h6.896v-3.448h3.448v3.448h3.448v3.448h3.448v6.896h3.448V68.96h3.448v-3.448H34.48v-3.448h-3.448v-3.448h10.344v-3.448h3.448v3.448h3.448v3.448h-3.448v3.448h3.448v-3.448h3.448v6.896h3.448V51.72h6.896v-3.448h-3.448v-3.448h-3.448v3.448h-6.896v-6.896h-6.896v-3.448h-3.448v3.448h3.448v6.896h-3.448v3.448h3.448v3.448H31.032v3.448h-3.448V51.72h3.448v-3.448h3.448v-6.896h-3.448v-3.448h3.448V34.48h-6.896v-3.448zm55.168 3.448v3.448h6.896v10.344h-3.448v3.448h-3.448v3.448h-3.448V51.72H68.96v3.448h-3.448v3.448h-6.896v6.896H68.96v3.448h3.448v-3.448H68.96v-3.448h3.448v-3.448h3.448v-3.448h3.448v3.448h3.448v6.896h-3.448v-3.448h-3.448v3.448h3.448v3.448H86.2v-6.896h3.448v-3.448h3.448v3.448h3.448v-3.448h-3.448V48.272h3.448v-3.448h-3.448v-6.896h-3.448V34.48H86.2v3.448h-3.448V34.48zM51.72 37.928v3.448h3.448v-3.448zm34.48 0v10.344h6.896v-3.448h-3.448v-6.896zM44.824 48.272v3.448h3.448v-3.448zM13.792 51.72v3.448h3.448V51.72zm68.96 0v3.448h6.896V51.72zm-62.064 3.448v3.448h3.448v-3.448zm0 10.344v3.448h6.896v3.448h3.448V68.96h-3.448v-3.448zm41.376 3.448v6.896h6.896v-3.448h-3.448V68.96zm10.344 3.448v10.344h10.344V72.408zm3.448 3.448v3.448h3.448v-3.448zM34.48 79.304v3.448h3.448V86.2h3.448v-3.448h-3.448v-3.448zm27.584 0v10.344h-3.448v3.448h3.448v-3.448h3.448V86.2h3.448v-3.448h-3.448v-3.448zM75.856 86.2v10.344h3.448v-3.448h3.448V86.2zm-31.032 3.448v3.448h3.448v-3.448zm48.272 0v3.448h3.448v-3.448zM34.48 93.096v3.448h6.896v-3.448zM0 0v24.136h24.136V0zm3.448 3.448v17.24h17.24V3.448zm3.448 3.448V17.24H17.24V6.896zM75.856 0v24.136h24.136V0zm3.448 3.448v17.24h17.24V3.448zm3.448 3.448V17.24h10.344V6.896zM0 75.856v24.136h24.136V75.856zm3.448 3.448v17.24h17.24v-17.24zm3.448 3.448v10.344H17.24V82.752z"/></svg>