<?xml version="1.0" encoding="UTF-8"?>
<svg xmlns="http://www.w3.org/2000/svg" version="1.1" width="100" height="100" viewBox="0 0 100 100"><rect x="0" y="0" width="100" height="100" fill="#ffffff"/><g transform="scale(3.448)"><g transform="translate(0,0)"><path fill-rule="evenodd" d="M8 0L8 1L9 1L9 2L10 2L10 3L11 3L11 1L14 1L14 2L12 2L12 4L11 4L11 5L10 5L10 4L9 4L9 5L10 5L10 8L9 8L9 6L8 6L8 8L9 8L9 10L10 10L10 11L7 11L7 10L8 10L8 9L7 9L7 8L6 8L6 9L7 9L7 10L5 10L5 12L4 12L4 11L3 11L3 13L5 13L5 14L0 14L0 15L2 15L2 16L1 16L1 17L0 17L0 21L2 21L2 20L3 20L3 19L4 19L4 18L5 18L5 17L3 17L3 18L2 18L2 16L3 16L3 15L4 15L4 16L6 16L6 17L7 17L7 16L6 16L6 15L8 15L8 17L9 17L9 18L8 18L8 19L7 19L7 18L6 18L6 19L5 19L5 20L4 20L4 21L7 21L7 20L8 20L8 19L9 19L9 21L8 21L8 22L9 22L9 24L8 24L8 26L9 26L9 27L8 27L8 29L13 29L13 28L15 28L15 29L16 29L16 28L17 28L17 27L16 27L16 25L17 25L17 26L18 26L18 27L22 27L22 29L26 29L26 28L27 28L27 27L28 27L28 28L29 28L29 25L28 25L28 24L27 24L27 25L28 25L28 26L24 26L24 25L26 25L26 24L25 24L25 20L26 20L26 21L27 21L27 22L26 22L26 23L28 23L28 21L29 21L29 20L28 20L28 19L29 19L29 18L28 18L28 16L29 16L29 13L28 13L28 14L27 14L27 13L24 13L24 12L22 12L22 9L23 9L23 10L25 10L25 11L28 11L28 9L29 9L29 8L28 8L28 9L26 9L26 10L25 10L25 9L23 9L23 8L22 8L22 9L21 9L21 10L20 10L20 8L21 8L21 5L20 5L20 4L21 4L21 2L20 2L20 1L19 1L19 0L17 0L17 1L16 1L16 2L15 2L15 0L11 0L11 1L9 1L9 0ZM17 1L17 2L16 2L16 3L19 3L19 1ZM14 2L14 4L12 4L12 5L11 5L11 7L12 7L12 9L10 9L10 10L12 10L12 11L13 11L13 13L11 13L11 12L10 12L10 13L9 13L9 12L7 12L7 11L6 11L6 12L5 12L5 13L6 13L6 14L7 14L7 13L8 13L8 14L10 14L10 15L9 15L9 17L13 17L13 16L14 16L14 18L12 18L12 19L10 19L10 18L9 18L9 19L10 19L10 20L11 20L11 21L9 21L9 22L10 22L10 23L11 23L11 24L9 24L9 25L10 25L10 27L9 27L9 28L12 28L12 27L14 27L14 25L13 25L13 24L14 24L14 23L15 23L15 22L14 22L14 20L13 20L13 21L12 21L12 19L15 19L15 20L16 20L16 19L15 19L15 16L16 16L16 18L17 18L17 20L18 20L18 21L19 21L19 22L18 22L18 23L19 23L19 22L20 22L20 20L21 20L21 19L23 19L23 17L27 17L27 16L28 16L28 15L27 15L27 16L26 16L26 14L25 14L25 16L24 16L24 13L23 13L23 16L22 16L22 14L21 14L21 13L22 13L22 12L21 12L21 13L20 13L20 12L17 12L17 10L19 10L19 11L20 11L20 10L19 10L19 7L20 7L20 5L18 5L18 4L15 4L15 2ZM14 4L14 5L15 5L15 4ZM12 5L12 7L13 7L13 8L14 8L14 9L15 9L15 10L13 10L13 9L12 9L12 10L13 10L13 11L16 11L16 9L18 9L18 8L14 8L14 7L15 7L15 6L14 6L14 7L13 7L13 5ZM16 6L16 7L17 7L17 6ZM18 6L18 7L19 7L19 6ZM0 8L0 9L2 9L2 10L3 10L3 9L5 9L5 8L3 8L3 9L2 9L2 8ZM0 10L0 11L1 11L1 12L0 12L0 13L2 13L2 11L1 11L1 10ZM6 12L6 13L7 13L7 12ZM15 12L15 13L13 13L13 14L11 14L11 16L12 16L12 15L14 15L14 14L15 14L15 15L16 15L16 16L17 16L17 15L16 15L16 14L17 14L17 13L16 13L16 12ZM19 14L19 15L20 15L20 16L21 16L21 15L20 15L20 14ZM17 17L17 18L18 18L18 20L19 20L19 19L20 19L20 18L21 18L21 17ZM26 18L26 19L27 19L27 18ZM6 19L6 20L7 20L7 19ZM16 21L16 22L17 22L17 21ZM21 21L21 24L24 24L24 21ZM12 22L12 23L14 23L14 22ZM22 22L22 23L23 23L23 22ZM16 23L16 24L15 24L15 25L16 25L16 24L17 24L17 25L19 25L19 26L21 26L21 25L19 25L19 24L17 24L17 23ZM12 25L12 26L13 26L13 25ZM22 25L22 27L23 27L23 28L26 28L26 27L24 27L24 26L23 26L23 25ZM19 28L19 29L21 29L21 28ZM0 0L0 7L7 7L7 0ZM1 1L1 6L6 6L6 1ZM2 2L2 5L5 5L5 2ZM22 0L22 7L29 7L29 0ZM23 1L23 6L28 6L28 1ZM24 2L24 5L27 5L27 2ZM0 22L0 29L7 29L7 22ZM1 23L1 28L6 28L6 23ZM2 24L2 27L5 27L5 24Z" fill="#000000"/></g></g></svg>
